# xmcd
#
# Track frame offsets: 
#        150
#        22401
#        40041
#        55834
#        64238
#        76788
#        93012
#        111677
#        132152
#
# Disc length: 1872 seconds
#
# Revision: 0
# Processed by: cddbd v1.5.2PL0 Copyright (c) Steve Scherf et al.
# Submitted via: ExactAudioCopy v1.0b3
#
DISCID=75074e09
DTITLE=Paul Franklin - Over The Limit
DYEAR=1981
DGENRE=Instrumental
TTITLE0=Midnight Paradise
TTITLE1=The Haunted
TTITLE2=San Francisco Night
TTITLE3=Over The Limit Part 1
TTITLE4=Automation
TTITLE5=My Baby Thinks It's A Train
TTITLE6=Let It Be Me
TTITLE7=Laser Dance
TTITLE8=Over The Limit
EXTD=
EXTT0=
EXTT1=
EXTT2=
EXTT3=
EXTT4=
EXTT5=
EXTT6=
EXTT7=
EXTT8=
PLAYORDER=
